<svg xmlns="http://www.w3.org/2000/svg" xmlns:xlink="http://www.w3.org/1999/xlink" width="1920" zoomAndPan="magnify" viewBox="0 0 1440 809.999993" height="1080" preserveAspectRatio="xMidYMid meet" version="1.0"><defs><clipPath id="adff6c4825"><path d="M 5 147.601562 L 1433 147.601562 L 1433 662 L 5 662 Z M 5 147.601562 " clip-rule="nonzero"/></clipPath></defs><g clip-path="url(#adff6c4825)"><path fill="#ffffff" d="M 1416.277344 598.839844 C 1438.210938 583.960938 1433.550781 566.355469 1427.640625 549.546875 C 1411.503906 502.980469 1387.640625 461.070312 1351.273438 426.769531 C 1235.359375 317.625 1098.082031 246.753906 945.007812 207.453125 C 788.070312 167.136719 633.179688 175.992188 483.398438 240.390625 C 412.941406 270.714844 344.074219 304.902344 272.027344 338.523438 C 274.640625 330.683594 277.027344 320.691406 281.117188 311.261719 C 308.507812 247.09375 306.121094 231.988281 257.140625 181.332031 C 246.230469 169.972656 233.277344 160.660156 218.046875 147.601562 C 209.867188 160.773438 203.730469 170.089844 198.160156 179.742188 C 138.046875 283.4375 79.746094 388.269531 16.675781 490.257812 C 1.449219 515.019531 2.8125 534.101562 12.8125 555.109375 C 33.042969 597.363281 68.609375 627.574219 105.65625 653.582031 C 118.613281 662.667969 142.816406 659.714844 161.113281 657.101562 C 295.097656 637.453125 429.648438 630.296875 564.539062 641.089844 C 606.585938 644.496094 648.066406 654.261719 693.523438 661.644531 C 698.523438 648.242188 690.226562 633.367188 682.269531 620.757812 C 644.882812 561.585938 599.425781 512.292969 524.878906 501.84375 C 489.648438 496.960938 454.535156 491.734375 419.304688 487.191406 C 403.625 485.148438 387.714844 484.695312 368.28125 483.21875 C 440.214844 405.078125 756.363281 330.230469 916.710938 350.902344 C 1111.71875 376 1277.179688 462.320312 1416.277344 598.839844 Z M 1416.277344 598.839844 " fill-opacity="1" fill-rule="nonzero"/></g></svg>